<?xml version="1.0" encoding="utf-8"?>
<!-- Generator: Adobe Illustrator 16.0.0, SVG Export Plug-In . SVG Version: 6.00 Build 0)  -->
<!DOCTYPE svg PUBLIC "-//W3C//DTD SVG 1.1//EN" "http://www.w3.org/Graphics/SVG/1.1/DTD/svg11.dtd">
<svg version="1.1" id="Layer_1" xmlns="http://www.w3.org/2000/svg" xmlns:xlink="http://www.w3.org/1999/xlink" x="0px" y="0px"
	 width="731.082px" height="91.167px" viewBox="0 0 731.082 91.167" enable-background="new 0 0 731.082 91.167"
	 xml:space="preserve">
<g>
	<path fill="#FFFFFF" d="M447.542,30.269c-1.709,2.65-4.5,4.047-8.093,4.047c-5.722,0-9.314-3.21-9.314-8.338
		c0-5.162,3.733-8.931,8.896-8.931c4.954,0,8.931,3.803,8.512,9.732h-12.07c0.035,1.885,1.047,4.117,4.047,4.117
		c1.396,0,2.303-0.453,3.838-1.919L447.542,30.269z M442.345,23.85c-0.279-2.094-1.57-3.349-3.488-3.349
		c-1.919,0-3.07,1.081-3.385,3.349H442.345z"/>
	<path fill="#FFFFFF" d="M448.554,30.129h2.407l3.558-4.256l-3.558-4.639h-2.407v-3.803h6.35l2.965,4.534l3.244-4.534h4.988v3.803
		h-2.232l-3.314,3.977l3.873,4.918h2.232v3.803h-6.35l-3.209-4.64l-3.418,4.64h-5.129V30.129z"/>
	<path fill="#FFFFFF" d="M478.589,41.327h-11.268v-3.802h2.791V21.234h-2.791v-3.803h8.129v2.092
		c1.465-1.639,2.93-2.337,4.779-2.337c3.977,0,7.012,3.698,7.012,8.582c0,5.023-2.932,8.547-7.082,8.547
		c-1.814,0-3.209-0.593-4.709-2.059v5.269h3.139V41.327z M478.589,21.513c-2.023,0-3.174,1.604-3.174,4.326
		c0,2.686,1.256,4.396,3.244,4.396s3.175-1.675,3.175-4.466C481.834,23.117,480.612,21.513,478.589,21.513z"/>
	<path fill="#FFFFFF" d="M505.835,30.269c-1.71,2.65-4.5,4.047-8.094,4.047c-5.721,0-9.314-3.21-9.314-8.338
		c0-5.162,3.732-8.931,8.896-8.931c4.953,0,8.93,3.803,8.512,9.732h-12.07c0.035,1.885,1.046,4.117,4.047,4.117
		c1.395,0,2.303-0.453,3.837-1.919L505.835,30.269z M500.636,23.85c-0.278-2.094-1.568-3.349-3.487-3.349s-3.07,1.081-3.384,3.349
		H500.636z"/>
	<path fill="#FFFFFF" d="M518.288,33.932h-11.617v-3.803h3.07v-8.895h-2.791v-3.803h7.57v4.186h0.07
		c0.977-2.86,3.035-4.431,5.756-4.431h0.768v4.988h-0.629c-4.256,0-5.407,2.86-5.407,6.21v1.744h3.21V33.932z"/>
	<path fill="#FFFFFF" d="M522.335,17.432h7.744v12.697h2.407v3.803h-10.151v-3.803h2.406v-8.895h-2.406V17.432z M530.358,12.722
		c0,1.604-1.291,2.895-2.896,2.895s-2.861-1.29-2.861-2.895c0-1.605,1.257-2.86,2.861-2.86S530.358,11.116,530.358,12.722z"/>
	<path fill="#FFFFFF" d="M550.312,30.269c-1.709,2.65-4.5,4.047-8.093,4.047c-5.722,0-9.314-3.21-9.314-8.338
		c0-5.162,3.733-8.931,8.896-8.931c4.953,0,8.931,3.803,8.512,9.732h-12.07c0.035,1.885,1.047,4.117,4.047,4.117
		c1.396,0,2.303-0.453,3.838-1.919L550.312,30.269z M545.114,23.85c-0.279-2.094-1.57-3.349-3.488-3.349
		c-1.919,0-3.07,1.081-3.385,3.349H545.114z"/>
	<path fill="#FFFFFF" d="M550.766,17.432h7.884v1.534c1.709-1.256,3.07-1.779,4.744-1.779c2.197,0,5.023,1.187,5.023,5.616v7.326
		h2.406v3.803h-7.744V23.467c0-1.326-0.558-1.85-1.535-1.85c-0.906,0-1.918,0.384-2.895,1.081v7.431h2.197v3.803h-10.081v-3.803
		h2.546v-8.895h-2.546V17.432z"/>
	<path fill="#FFFFFF" d="M569.882,17.432h2.094V14.85l5.337-3.768v6.35h2.966v3.803h-2.966v7.15c0,1.431,0.245,1.709,1.36,1.709
		c0.559,0,0.873-0.069,1.605-0.313v3.558c-1.326,0.559-2.652,0.838-3.942,0.838c-2.093,0-4.36-1.012-4.36-3.941v-9h-2.094V17.432z"
		/>
	<path fill="#FFFFFF" d="M582.021,17.432h7.745v12.697h2.406v3.803h-10.151v-3.803h2.407v-8.895h-2.407V17.432z M590.046,12.722
		c0,1.604-1.291,2.895-2.896,2.895c-1.604,0-2.859-1.29-2.859-2.895c0-1.605,1.256-2.86,2.859-2.86
		C588.755,9.861,590.046,11.116,590.046,12.722z"/>
	<path fill="#FFFFFF" d="M611.359,33.932h-7.988v-1.291c-1.535,1.082-2.861,1.535-4.466,1.535c-3.453,0-6.035-2.197-6.035-5.163
		c0-3.209,2.826-5.546,6.768-5.546c1.5,0,2.407,0.278,3.733,0.732v-0.908c0-1.709-1.257-2.895-3.14-2.895
		c-1.221,0-2.059,0.384-3,1.29l-4.256-0.732c1.325-2.687,3.837-3.907,7.988-3.907c5.406,0,7.744,1.919,7.744,6.314v6.768h2.651
		V33.932z M600.336,26.641c-1.396,0-2.407,0.872-2.407,2.059c0,1.255,0.941,2.197,2.163,2.197c1.046,0,1.884-0.453,3.279-1.709
		v-1.361C602.08,26.989,601.138,26.641,600.336,26.641z"/>
	<path fill="#FFFFFF" d="M612.37,30.129h2.547V14.048h-2.547v-3.803h7.885v19.884h2.372v3.803H612.37V30.129z"/>
	<path fill="#FFFFFF" d="M647.743,33.932h-7.884v-1.953c-1.604,1.569-2.999,2.197-4.779,2.197c-4.046,0-7.116-3.698-7.116-8.582
		c0-4.813,3.105-8.547,7.152-8.547c1.848,0,3.522,0.803,4.743,2.198v-5.197h-2.546v-3.803h7.884v19.884h2.546V33.932z
		 M636.581,21.373c-1.988,0-3.21,1.64-3.21,4.326c0,2.65,1.256,4.395,3.244,4.395c1.64,0,3.314-1.29,3.314-4.5
		C639.93,23.117,638.673,21.373,636.581,21.373z"/>
	<path fill="#FFFFFF" d="M648.511,17.432h7.744v12.697h2.408v3.803h-10.152v-3.803h2.407v-8.895h-2.407V17.432z M656.534,12.722
		c0,1.604-1.29,2.895-2.895,2.895c-1.605,0-2.861-1.29-2.861-2.895c0-1.605,1.256-2.86,2.861-2.86
		C655.244,9.861,656.534,11.116,656.534,12.722z"/>
	<path fill="#FFFFFF" d="M679.244,21.234h-2.79v12.313c0,4.36-2.094,8.059-8.722,8.059c-3.313,0-5.721-0.594-7.325-1.814
		l2.546-3.453c1.431,0.837,2.651,1.187,4.082,1.187c3.174,0,4.081-1.989,4.081-4.048v-1.604c-1.849,1.568-3.314,2.232-5.023,2.232
		c-3.907,0-6.872-3.629-6.872-8.443c0-4.848,3.069-8.477,7.151-8.477c1.884,0,3.488,0.769,4.674,2.268h0.07v-2.022h8.128V21.234z
		 M667.837,21.513c-1.988,0-3.209,1.64-3.209,4.187c0,2.546,1.256,4.221,3.209,4.221c1.918,0,3.279-1.675,3.279-4.151
		C671.116,23.152,669.86,21.513,667.837,21.513z"/>
	<path fill="#FFFFFF" d="M680.569,17.432h7.744v12.697h2.408v3.803h-10.152v-3.803h2.407v-8.895h-2.407V17.432z M688.593,12.722
		c0,1.604-1.29,2.895-2.895,2.895c-1.605,0-2.861-1.29-2.861-2.895c0-1.605,1.256-2.86,2.861-2.86
		C687.303,9.861,688.593,11.116,688.593,12.722z"/>
	<path fill="#FFFFFF" d="M689.987,17.432h2.094V14.85l5.338-3.768v6.35h2.965v3.803h-2.965v7.15c0,1.431,0.244,1.709,1.36,1.709
		c0.558,0,0.872-0.069,1.604-0.313v3.558c-1.326,0.559-2.651,0.838-3.941,0.838c-2.094,0-4.361-1.012-4.361-3.941v-9h-2.094V17.432z
		"/>
	<path fill="#FFFFFF" d="M719.814,33.932h-7.988v-1.291c-1.535,1.082-2.86,1.535-4.466,1.535c-3.453,0-6.035-2.197-6.035-5.163
		c0-3.209,2.826-5.546,6.768-5.546c1.501,0,2.408,0.278,3.733,0.732v-0.908c0-1.709-1.256-2.895-3.14-2.895
		c-1.221,0-2.059,0.384-3,1.29l-4.256-0.732c1.325-2.687,3.837-3.907,7.988-3.907c5.406,0,7.744,1.919,7.744,6.314v6.768h2.651
		V33.932z M708.791,26.641c-1.396,0-2.407,0.872-2.407,2.059c0,1.255,0.941,2.197,2.163,2.197c1.047,0,1.884-0.453,3.279-1.709
		v-1.361C710.535,26.989,709.594,26.641,708.791,26.641z"/>
	<path fill="#FFFFFF" d="M720.825,30.129h2.548V14.048h-2.548v-3.803h7.885v19.884h2.372v3.803h-10.257V30.129z"/>
	<path fill="#FFFFFF" d="M455.392,68.228h-7.012l-2.129-2.616c-2.197,1.988-4.883,3.035-7.674,3.035
		c-4.85,0-8.442-3.105-8.442-7.291c0-3.523,2.687-5.861,6.558-7.641c-1.324-1.569-1.883-2.825-1.883-4.324
		c0-3.141,2.581-5.233,6.488-5.233c3.663,0,6.314,2.023,6.314,4.849c0,2.129-1.431,4.012-4.117,5.372l3.385,4.291
		c1.047-1.465,2.337-3.662,2.86-4.919h5.651v3.803h-2.861c-0.662,1.431-1.918,3.418-2.79,4.431l1.849,2.441h3.803V68.228z
		 M439.101,56.646c-2.268,0.906-3.559,2.337-3.559,3.977c0,2.022,1.779,3.593,4.012,3.593c1.396,0,2.582-0.559,4.047-1.919
		L439.101,56.646z M443.426,49.006c0-0.941-0.907-1.709-1.953-1.709c-1.047,0-1.919,0.662-1.919,1.499
		c0,0.523,0.314,1.012,1.57,2.582C442.589,50.75,443.426,49.878,443.426,49.006z"/>
	<path fill="#FFFFFF" d="M466.415,55.53h-2.408v-3.803h9.698v3.803h-1.709l2.581,7.499l3.07-7.499h-1.709v-3.803h8.337v3.803h-2.407
		l-5.372,12.941h-4.5L466.415,55.53z"/>
	<path fill="#FFFFFF" d="M485.636,51.728h7.744v12.697h2.408v3.803h-10.152v-3.803h2.407V55.53h-2.407V51.728z M493.659,47.018
		c0,1.604-1.29,2.895-2.895,2.895c-1.605,0-2.861-1.29-2.861-2.895c0-1.605,1.256-2.86,2.861-2.86
		C492.369,44.157,493.659,45.412,493.659,47.018z"/>
	<path fill="#FFFFFF" d="M515.532,68.228h-7.884v-1.953c-1.604,1.569-3.001,2.197-4.78,2.197c-4.046,0-7.115-3.698-7.115-8.582
		c0-4.813,3.104-8.547,7.15-8.547c1.85,0,3.523,0.803,4.745,2.198v-5.197h-2.548v-3.803h7.885v19.884h2.547V68.228z M504.369,55.669
		c-1.989,0-3.21,1.64-3.21,4.326c0,2.65,1.256,4.395,3.244,4.395c1.641,0,3.314-1.29,3.314-4.5
		C507.718,57.413,506.462,55.669,504.369,55.669z"/>
	<path fill="#FFFFFF" d="M532.729,64.564c-1.709,2.651-4.5,4.047-8.093,4.047c-5.721,0-9.313-3.21-9.313-8.338
		c0-5.162,3.732-8.931,8.895-8.931c4.953,0,8.931,3.803,8.512,9.732h-12.07c0.035,1.885,1.047,4.117,4.047,4.117
		c1.396,0,2.303-0.453,3.838-1.919L532.729,64.564z M527.532,58.146c-0.279-2.093-1.57-3.349-3.488-3.349
		c-1.919,0-3.07,1.081-3.385,3.349H527.532z"/>
	<path fill="#FFFFFF" d="M542.603,68.611c-4.885,0-8.651-3.175-8.651-8.652c0-5.79,4.187-8.616,8.651-8.616
		c4.814,0,8.686,3.071,8.686,8.616C551.288,65.158,547.765,68.611,542.603,68.611z M542.603,55.425c-2.094,0-3.244,1.674-3.244,4.64
		c0,2.791,1.221,4.466,3.244,4.466c2.093,0,3.279-1.675,3.279-4.571C545.882,57.099,544.695,55.425,542.603,55.425z"/>
	<path fill="#FFFFFF" d="M561.266,62.541h3.837c0.035,0.768,0.279,1.256,1.047,1.849c0.662,0.488,1.535,0.698,2.616,0.698
		c1.604,0,2.687-0.628,2.687-1.604c0-2.408-6.244-0.803-9.594-4.151c-0.697-0.698-1.221-1.779-1.221-3
		c0-2.826,2.547-4.85,6.105-4.85c1.499,0,2.895,0.279,4.15,0.803v-0.558h3.768v4.778h-3.768c-0.313-1.151-1.5-1.709-3.593-1.709
		c-1.396,0-2.268,0.523-2.268,1.256c0,2.303,10.744,0.104,10.744,6.942c0,3.209-2.232,5.547-6.488,5.547
		c-2.372,0-3.419-0.419-4.187-1.151v0.837h-3.837V62.541z"/>
	<path fill="#FFFFFF" d="M586.801,75.623h-11.268v-3.802h2.791V55.53h-2.791v-3.803h8.128v2.092
		c1.465-1.639,2.931-2.337,4.779-2.337c3.977,0,7.012,3.698,7.012,8.582c0,5.023-2.93,8.547-7.082,8.547
		c-1.812,0-3.209-0.593-4.709-2.059v5.269h3.14V75.623z M586.801,55.809c-2.022,0-3.175,1.604-3.175,4.326
		c0,2.686,1.257,4.396,3.245,4.396s3.175-1.675,3.175-4.466C590.046,57.413,588.825,55.809,586.801,55.809z"/>
	<path fill="#FFFFFF" d="M613.487,64.564c-1.709,2.651-4.5,4.047-8.093,4.047c-5.722,0-9.313-3.21-9.313-8.338
		c0-5.162,3.732-8.931,8.895-8.931c4.953,0,8.932,3.803,8.512,9.732h-12.069c0.034,1.885,1.046,4.117,4.046,4.117
		c1.396,0,2.303-0.453,3.838-1.919L613.487,64.564z M608.29,58.146c-0.279-2.093-1.57-3.349-3.488-3.349
		c-1.919,0-3.07,1.081-3.384,3.349H608.29z"/>
	<path fill="#FFFFFF" d="M631.454,58.425h-3.629c-0.837-1.814-2.232-2.756-4.047-2.756c-2.371,0-3.871,1.675-3.871,4.256
		c0,2.861,1.395,4.605,3.732,4.605c1.64,0,3.244-1.012,4.186-2.722l4.082,1.814c-1.465,3.279-4.187,4.988-7.988,4.988
		c-5.688,0-9.42-3.419-9.42-8.652c0-4.883,3.523-8.477,8.338-8.477c1.814,0,3.279,0.488,4.988,1.604v-1.359h3.629V58.425z"/>
	<path fill="#FFFFFF" d="M632.987,51.728h7.745v12.697h2.407v3.803h-10.152v-3.803h2.408V55.53h-2.408V51.728z M641.012,47.018
		c0,1.604-1.29,2.895-2.896,2.895s-2.86-1.29-2.86-2.895c0-1.605,1.255-2.86,2.86-2.86S641.012,45.412,641.012,47.018z"/>
	<path fill="#FFFFFF" d="M662.325,68.228h-7.988v-1.291c-1.535,1.082-2.861,1.535-4.465,1.535c-3.454,0-6.035-2.197-6.035-5.163
		c0-3.209,2.825-5.546,6.768-5.546c1.5,0,2.406,0.278,3.732,0.732v-0.907c0-1.71-1.256-2.896-3.14-2.896
		c-1.221,0-2.058,0.384-3,1.29l-4.257-0.732c1.326-2.686,3.838-3.907,7.989-3.907c5.407,0,7.745,1.919,7.745,6.314v6.768h2.65
		V68.228z M651.302,60.937c-1.395,0-2.406,0.872-2.406,2.059c0,1.255,0.941,2.197,2.162,2.197c1.047,0,1.885-0.453,3.279-1.709
		v-1.361C653.046,61.285,652.104,60.937,651.302,60.937z"/>
	<path fill="#FFFFFF" d="M664.035,64.425h2.546V48.344h-2.546v-3.803h7.884v19.884h2.372v3.803h-10.256V64.425z"/>
	<path fill="#FFFFFF" d="M675.232,51.728h7.744v12.697h2.407v3.803h-10.151v-3.803h2.407V55.53h-2.407V51.728z M683.256,47.018
		c0,1.604-1.291,2.895-2.896,2.895s-2.861-1.29-2.861-2.895c0-1.605,1.257-2.86,2.861-2.86S683.256,45.412,683.256,47.018z"/>
	<path fill="#FFFFFF" d="M686.708,62.541h3.838c0.035,0.768,0.279,1.256,1.047,1.849c0.662,0.488,1.535,0.698,2.616,0.698
		c1.604,0,2.687-0.628,2.687-1.604c0-2.408-6.245-0.803-9.594-4.151c-0.697-0.698-1.221-1.779-1.221-3
		c0-2.826,2.547-4.85,6.104-4.85c1.5,0,2.896,0.279,4.151,0.803v-0.558h3.768v4.778h-3.768c-0.313-1.151-1.5-1.709-3.593-1.709
		c-1.396,0-2.268,0.523-2.268,1.256c0,2.303,10.744,0.104,10.744,6.942c0,3.209-2.232,5.547-6.488,5.547
		c-2.372,0-3.419-0.419-4.187-1.151v0.837h-3.838V62.541z"/>
	<path fill="#FFFFFF" d="M701.744,51.728h2.093v-2.582l5.338-3.768v6.35h2.965v3.803h-2.965v7.15c0,1.431,0.244,1.709,1.36,1.709
		c0.558,0,0.872-0.069,1.604-0.313v3.558c-1.325,0.559-2.65,0.838-3.941,0.838c-2.094,0-4.361-1.012-4.361-3.941v-9h-2.093V51.728z"
		/>
	<path fill="#FFFFFF" d="M713.709,62.541h3.837c0.035,0.768,0.279,1.256,1.047,1.849c0.663,0.488,1.535,0.698,2.617,0.698
		c1.604,0,2.686-0.628,2.686-1.604c0-2.408-6.244-0.803-9.594-4.151c-0.697-0.698-1.221-1.779-1.221-3
		c0-2.826,2.547-4.85,6.105-4.85c1.5,0,2.895,0.279,4.15,0.803v-0.558h3.768v4.778h-3.768c-0.313-1.151-1.5-1.709-3.593-1.709
		c-1.396,0-2.267,0.523-2.267,1.256c0,2.303,10.744,0.104,10.744,6.942c0,3.209-2.233,5.547-6.488,5.547
		c-2.373,0-3.42-0.419-4.188-1.151v0.837h-3.837V62.541z"/>
</g>
<g>
	<g>
		<path fill="#FFFFFF" d="M236.236,52.729c-0.793-0.034-1.591,0.146-2.404,0.525c-2.345,1.42-4.476,2.104-6.423,2.033
			c-1.756-0.059-3.561-0.769-5.415-2.116c-1.593-2.483-2.326-5.459-2.213-8.933c0.126-3.703,0.902-6.584,2.335-8.637
			c0.978-1.377,3.153-2.486,6.535-3.328c2.754-0.681,4.486-1.212,5.208-1.601c1.657-0.943,2.528-2.423,2.601-4.43
			c0.049-1.734-0.403-3.229-1.372-4.479c-0.968-1.256-2.294-2.066-3.953-2.444c-3.311,0.114-5.307,0.226-5.963,0.333
			c-2.579,0.414-5.151,1.509-7.722,3.294c-4.33,2.959-7.853,7.134-10.539,12.52c-0.584,1.583-0.922,3.766-1.017,6.559
			c-0.097,3.056,0.095,6.242,0.604,9.556c0.661,4.056,1.659,6.996,3.012,8.831c1.523,2.068,2.929,3.508,4.218,4.338
			c0.309,0.187,2.37,1.131,6.191,2.824c2.8,0.837,4.946,1.287,6.447,1.336c1.975,0.069,3.978-0.295,5.984-1.088
			c2.956-1.178,4.926-2.408,5.919-3.702c0.998-1.29,1.645-3.324,1.956-6.107c0.134-1.367-0.165-2.579-0.895-3.634
			C238.583,53.316,237.554,52.77,236.236,52.729z M248.721,28.595c-2.197,0.765-3.999,2.582-5.413,5.433
			c-0.712,1.44-1.607,4.002-2.712,7.681c-0.241,1.593-0.382,3.007-0.428,4.247c-0.083,2.47,0.201,4.538,0.86,6.194
			c0.647,1.649,1.806,3.409,3.479,5.26c1.943,1.021,4.096,1.566,6.452,1.645c2.163,0.085,4.724-0.263,7.675-1.036
			c2.253-1.587,3.727-3.344,4.425-5.274c0.584-1.645,0.917-4.467,0.988-8.479c-0.616-5.267-2.039-9.125-4.285-11.553
			C257.367,30.146,253.684,28.775,248.721,28.595z M281.814,41.757c-0.917-0.029-2.046,0.199-3.394,0.705
			c-1.36,0.511-2.126,0.755-2.314,0.755c-0.284-0.01-0.503-0.135-0.647-0.37c-0.514-0.866-0.736-2.117-0.679-3.747
			c0.039-1.133,0.326-2.808,0.854-5.007c0.529-2.194,0.813-3.848,0.85-4.957c0.01-0.295-0.014-0.523-0.073-0.692
			c-0.275-1.216-1.664-1.867-4.177-1.96c-2.423-0.085-3.869,0.492-4.357,1.751c-0.336,0.678-0.696,2.639-1.085,5.883
			c-0.392,3.251-0.662,6.856-0.789,10.836c-0.226,6.678,0.122,11.193,1.051,13.541c0.491,1.255,1.893,2.224,4.196,2.891
			c1.623,0.48,3.357,0.754,5.204,0.822c2.112,0.079,4.097-0.107,5.965-0.565c2.029-0.481,3.42-1.165,4.175-2.053
			c2.058-2.37,3.144-5.144,3.246-8.296c0.111-3.163-0.842-5.741-2.847-7.736C285.202,42.414,283.48,41.81,281.814,41.757z
			 M307.279,40.153c-0.912-0.031-2.045,0.207-3.393,0.713c-1.358,0.509-2.126,0.749-2.316,0.744
			c-0.287-0.01-0.501-0.131-0.649-0.362c-0.507-0.868-0.728-2.114-0.674-3.744c0.039-1.139,0.319-2.802,0.852-5.012
			c0.525-2.199,0.808-3.853,0.844-4.958c0.012-0.291-0.012-0.527-0.071-0.688c-0.272-1.213-1.664-1.87-4.174-1.958
			c-2.423-0.09-3.868,0.491-4.355,1.752c-0.335,0.669-0.701,2.63-1.092,5.884c-0.386,3.246-0.654,6.854-0.785,10.823
			c-0.224,6.686,0.126,11.206,1.053,13.546c0.496,1.261,1.896,2.225,4.196,2.896c1.621,0.481,3.355,0.759,5.209,0.822
			c2.104,0.075,4.089-0.114,5.965-0.569c2.024-0.479,3.423-1.166,4.169-2.053c2.061-2.367,3.141-5.134,3.248-8.296
			c0.107-3.16-0.846-5.739-2.856-7.736C310.668,40.815,308.937,40.215,307.279,40.153z M331.742,54.519
			c-2.764,0.065-4.107-1.043-4.039-3.325c0.015-0.295,0.024-0.684,0.043-1.175c-0.083-0.395-0.112-0.952-0.087-1.669
			c0.054-1.562,0.391-3.893,1.036-7.004c0.637-3.112,0.983-5.459,1.039-7.062c0.046-1.394-0.058-2.571-0.307-3.532
			c-0.581-1.454-2.172-2.233-4.781-2.323c-2.697-0.095-4.359,0.653-4.982,2.267c-0.773,6.206-1.236,11.554-1.381,16.05
			c-0.224,6.741,0.301,11.068,1.586,12.977c1.679,2.476,3.965,3.761,6.855,3.865c1.888,0.07,3.766-0.354,5.654-1.268
			c1.311-0.635,2.001-1.935,2.07-3.888C334.529,55.954,333.625,54.649,331.742,54.519z M354.079,49.706
			c-0.514,0.03-1.013,0.176-1.509,0.438c-1.119,0.818-2.286,1.263-3.493,1.328c-0.482,0.018-1.834-0.214-4.061-0.713
			c-0.488-0.123-0.917-0.387-1.291-0.785c-0.375-0.408-0.58-0.858-0.604-1.357c-0.02-0.555,0.195-0.988,0.664-1.305
			c0.085-0.067,0.222-0.103,0.418-0.116c0.533-0.031,1.395,0.053,2.577,0.238c1.182,0.189,2.068,0.268,2.656,0.233
			c3.326-0.173,5.216-2.271,5.669-6.273c-0.285-5.82-2.798-8.601-7.527-8.355c-0.063,0-0.647,0.076-1.775,0.229
			c-1.007,0.083-2.316,0.256-3.913,0.514c-3.953,1.148-6.366,4.642-7.239,10.495c-0.19,1.265-0.263,2.34-0.224,3.218
			c0.18,3.594,1.182,6.387,3,8.374c1.049,1.117,2.012,1.897,2.907,2.35c0.263,0.134,1.63,0.602,4.097,1.413
			c1.825,0.337,3.216,0.484,4.172,0.429c1.307-0.063,2.562-0.39,3.769-0.978c1.794-0.891,2.982-1.756,3.561-2.594
			c0.579-0.837,0.903-2.104,0.958-3.805c0.039-0.886-0.209-1.611-0.744-2.18C355.609,49.931,354.921,49.661,354.079,49.706z
			 M383.642,39.987c-0.472-0.892-1.162-1.326-2.078-1.296c-0.719-0.127-1.439-0.202-2.165-0.229
			c-3.075-0.102-6.135,0.682-9.181,2.366c-0.725,0.067-1.083-0.089-1.068-0.485c0.031-0.152,0.149-0.663,0.333-1.496
			c0.15-0.715,0.075-1.258-0.229-1.625c-0.085-1.118-1.258-1.71-3.522-1.795c-0.88-0.032-1.766,0.054-2.651,0.248
			c-1.241,0.248-1.985,0.661-2.258,1.24c-0.983,1.236-1.566,4.496-1.747,9.771c-0.077,2.511-0.024,5.449,0.181,8.816
			c0.272,4.831,0.783,7.492,1.525,7.979c0.46,1.392,1.847,2.116,4.17,2.204c2.231,0.082,3.681-0.551,4.357-1.896
			c0.421-0.348,0.647-1.02,0.681-2.031c0.034-1.041-0.116-2.628-0.453-4.759c-0.336-2.142-0.496-3.72-0.455-4.761
			c0.042-1.18,0.287-1.978,0.742-2.425c0.662-1.02,2.452-1.822,5.361-2.399c1.55-0.271,3.878-0.691,6.978-1.265
			c0.633-0.046,1.134-0.496,1.506-1.367c0.275-0.679,0.426-1.404,0.45-2.185C384.153,41.557,383.995,40.687,383.642,39.987z"/>
		<path fill="#FFFFFF" d="M33.397,28.172c-1.608,0-3.109,0.221-4.503,0.672c-1.72,0.593-2.603,1.392-2.659,2.403
			c-0.481,0.9-0.961,1.773-1.445,2.637c-0.754,1.003-1.858,1.547-3.304,1.621c-1.287-0.074-2.301-0.555-3.056-1.455
			c-0.059-0.036-0.564-0.873-1.528-2.519c-0.058-1.265-0.946-2.24-2.662-2.909c-1.445-0.594-3.136-0.898-5.069-0.898
			c-1.825,0-3.406,0.244-4.751,0.731c-1.662,0.626-2.547,1.522-2.654,2.671C0.583,33.841,0,39.057,0,46.783
			c0,10.026,0.749,16.328,2.248,18.89c0.81,1.409,2.978,2.114,6.524,2.114c3.489,0,5.841-0.759,7.075-2.284
			c0.166-0.256,0.246-0.681,0.246-1.281c0-1.228-0.271-3.073-0.806-5.548c-0.538-2.466-0.803-4.312-0.803-5.547
			c0-2.038,0.613-3.172,1.854-3.396c0.37,0,0.925,0.723,1.649,2.168c0.72,1.447,1.815,2.164,3.255,2.164
			c1.345,0,2.362-0.372,3.055-1.106c0.38-0.408,0.784-1.095,1.217-2.062c0.37-0.774,0.72-1.163,1.041-1.163
			c0.91,0.07,1.367,1.016,1.367,2.831c0,1.154-0.175,2.891-0.525,5.227c-0.346,2.333-0.518,4.076-0.518,5.221
			c0,1.08,0.134,1.893,0.404,2.447c1.287,1.557,3.457,2.33,6.517,2.33c1.45,0,2.817-0.199,4.102-0.604
			c1.557-0.525,2.5-1.207,2.822-2.062c1.337-3.409,2.009-8.632,2.009-15.669c0-7.7-0.672-13.685-2.009-17.947
			C40.028,29.279,37.583,28.172,33.397,28.172z M63.41,32.179c-2.403-2.309-6.009-3.467-10.813-3.467
			c-2.092,0.794-3.783,2.54-5.058,5.245c-0.64,1.369-1.428,3.79-2.377,7.255c-0.18,1.489-0.272,2.812-0.272,3.97
			c0,2.312,0.346,4.229,1.03,5.746c0.683,1.519,1.861,3.114,3.534,4.788c1.915,0.885,4.014,1.323,6.292,1.323
			c2.102,0,4.564-0.414,7.391-1.231c2.131-1.556,3.498-3.237,4.104-5.062c0.516-1.555,0.747-4.197,0.688-7.938
			C67.164,37.913,65.655,34.368,63.41,32.179z M93.792,39.868c-0.068-2.177-0.949-3.96-2.637-5.356
			c-1.688-1.396-3.639-2.048-5.858-1.945c-1.188,0.048-2.34,0.34-3.477,0.875c-0.657,0.304-1.263,0.759-1.812,1.357
			c-0.467,0.482-1.022,0.7-1.659,0.669c-0.365-0.018-0.601-0.114-0.698-0.289c-0.065-0.09-0.104-0.331-0.119-0.728
			c-0.097-0.665-0.525-1.161-1.299-1.496c-0.627-0.278-1.318-0.4-2.072-0.365c-1.732,0.073-2.783,0.779-3.148,2.098
			c-0.638,1.483-0.832,5.05-0.589,10.689c0.243,5.551,0.783,10.285,1.625,14.197c0.229,1.087,1.713,1.566,4.447,1.447
			c2.703-0.119,4.016-0.771,3.932-1.938c-0.519-7.727-0.769-11.327-0.745-10.812c-0.063-1.426-0.068-2.289-0.024-2.596
			c0.107-1.126,0.535-1.783,1.284-1.966c1.268-0.299,2.049-0.484,2.35-0.56c1.482-0.309,2.323,1.935,2.53,6.727
			c0.029,0.696,0.054,1.747,0.068,3.147c0.014,1.407,0.034,2.448,0.068,3.148c0.073,1.651,0.253,2.627,0.54,2.915
			c0.287,0.987,1.433,1.436,3.435,1.35c2.218-0.103,3.538-0.576,3.956-1.447c0.625-2.477,0.818-6.428,0.579-11.836
			C94.348,44.403,94.119,41.976,93.792,39.868z M119.366,57.795c1.494,0,2.832-0.391,4.004-1.174
			c1.355-0.925,1.961-2.095,1.815-3.527c-0.283-2.634-1.18-5.063-2.698-7.286c-1.516-2.227-3.442-3.896-5.792-5
			c4.309-2.525,6.973-5.536,8.009-9.025c0.146-0.467,0.218-0.886,0.218-1.282c0-1.428-0.676-2.683-2.034-3.764
			c-1.353-1.087-2.763-1.635-4.218-1.635c-1.462,0-2.722,0.964-3.793,2.885c-1.138,2.567-1.909,4.277-2.294,5.135
			c-0.854,1.78-1.905,2.544-3.155,2.294c-0.927-0.5-1.389-2.492-1.389-5.979v-4.335c0-1.206-0.053-2.116-0.155-2.725
			c-0.146-1.852-1.937-2.773-5.374-2.773c-2.725,0-4.177,0.608-4.362,1.814c-0.531,3.46-0.793,8.063-0.793,13.809
			c0,2.675,0.213,8.929,0.642,18.776c0.068,1.46,0.691,2.601,1.868,3.421c1.07,0.715,2.37,1.065,3.902,1.065
			c2.742,0,4.326-0.925,4.754-2.788c-0.82-2.574-1.229-4.525-1.229-5.848c0-1.397,0.409-2.346,1.229-2.848
			c0.321-0.069,0.625-0.106,0.907-0.106c1.034,0,1.939,0.628,2.722,1.868c0.363,0.535,0.963,1.908,1.815,4.116
			c0.715,1.815,1.377,3.111,1.983,3.902C116.836,57.457,117.977,57.795,119.366,57.795z M129.768,53.327
			c1.151,1.129,2.214,1.927,3.194,2.374c0.28,0.124,1.761,0.584,4.445,1.367c1.975,0.312,3.477,0.43,4.505,0.355
			c1.396-0.103,2.742-0.477,4.028-1.117c1.92-0.965,3.175-1.89,3.784-2.773c0.608-0.878,0.919-2.208,0.946-3.975
			c0.02-0.917-0.263-1.669-0.856-2.253c-0.584-0.579-1.338-0.835-2.246-0.769c-0.547,0.036-1.083,0.197-1.613,0.484
			c-1.189,0.881-2.432,1.367-3.736,1.459c-0.516,0.039-1.978-0.175-4.391-0.642c-0.523-0.113-0.995-0.375-1.409-0.784
			c-0.409-0.415-0.633-0.876-0.669-1.396c-0.042-0.574,0.183-1.032,0.674-1.372c0.09-0.069,0.238-0.107,0.447-0.127
			c0.579-0.039,1.504,0.02,2.783,0.188c1.275,0.167,2.233,0.227,2.874,0.178c3.579-0.263,5.563-2.477,5.958-6.651
			c-0.438-6.039-3.206-8.87-8.301-8.495c-0.063,0.001-0.695,0.095-1.902,0.276c-1.09,0.107-2.488,0.319-4.208,0.623
			c-4.233,1.289-6.753,4.978-7.556,11.069c-0.175,1.328-0.233,2.443-0.17,3.353C126.625,48.432,127.764,51.308,129.768,53.327z
			 M173.597,38.59c-0.91-0.429-1.958-0.641-3.144-0.641c-2.375,0-3.71,0.533-4.014,1.599c-0.365,2.009-0.623,3.512-0.776,4.515
			c-0.367,1.854-1.092,2.783-2.187,2.783c-1.037-0.214-1.72-1.197-2.054-2.953c-0.246-1.27-0.489-2.734-0.735-4.398
			c-0.151-1.119-1.392-1.682-3.734-1.682c-1.155,0-2.299,0.183-3.423,0.55c-1.489,0.515-2.233,1.243-2.233,2.185
			c0,2.461,0.53,4.966,1.591,7.516c1.433,3.43,3.52,5.646,6.252,6.646c0.119,0.067,0.18,0.155,0.18,0.277
			c0,0.33-0.924,1.866-2.78,4.598l-4.406,8.301l-4.274,7.531c0,0-6.882,8.719-15.636,8.7c-0.219-0.005-0.45-0.024-0.674-0.032
			c-0.433-0.026-0.863-0.046-1.304-0.114l0.017,0.046c-0.852-0.097-1.728-0.25-2.637-0.474c0,0-0.506-0.204-1.265-0.645
			c-1.207-0.714-3.065-2.075-4.532-4.26c-0.586-1.006-1.112-2.151-1.555-3.465c-0.031-0.023-0.056-0.044-0.087-0.072
			c-0.216-0.726-0.389-1.514-0.486-2.363c0,0-0.706-3.114,0.486-6.13h0.007c0.056-0.124,0.125-0.3,0.189-0.479
			c0.127-0.263,0.258-0.53,0.414-0.778c0.022-0.01,0.036-0.024,0.053-0.034c0-0.008-0.007-0.02-0.017-0.02
			c0.03-0.044,0.046-0.071,0.073-0.112c0.015,0.01,0.024,0.025,0.049,0.025c0.034-0.045,0.046-0.107,0.046-0.161
			c0.027-0.044,0.056-0.08,0.085-0.132c0,0.01,0,0.01-0.005,0.02c0.168-0.039,0.168-0.17,0.272-0.243
			c-0.005-0.029-0.009-0.063-0.024-0.103c0.035-0.038,0.066-0.077,0.095-0.12c0.027,0.055,0.046,0.104,0.1,0.094
			c0.107-0.268,0.277-0.479,0.458-0.7c0.207-0.204,0.438-0.401,0.679-0.596c0.005-0.01,0,0,0.005,0c0.015,0,0.012-0.01,0.012-0.01
			c0.56-0.438,1.231-0.835,2.01-1.168c0.116-0.044,0.221-0.088,0.309-0.098c-0.007,0-0.02,0-0.032-0.015
			c1.153-0.434,2.525-0.749,4.189-0.864c0.01,0.008,0.017,0.008,0.022,0.008c0.015-0.005,0.007-0.008,0.015-0.008
			c0.172-0.016,0.345-0.021,0.523-0.021c0.175,0.039,0.34,0.039,0.458-0.018c0.1-0.002,0.185-0.002,0.284-0.002
			c0.336,0.254,0.815,0.197,1.272,0.258c0.161,0.059,0.336,0.109,0.516,0.175c0.039,0.025,0.09,0.045,0.127,0.073
			c-0.005-0.007,0-0.02,0-0.028c0.793,0.296,1.737,0.756,2.61,1.431c0.056,0.07,0.104,0.126,0.153,0.199
			c0.029-0.01,0.068,0.002,0.102,0.002c2.282,1.905,3.936,5.442,0.911,11.859c-0.239,0.153-0.46,0.242-0.546,0.132
			c0.049,0.353-0.208,0.448-0.321,0.623c-0.063,0.051-0.128,0.098-0.2,0.131c-0.053-0.028-0.114-0.044-0.218,0.02
			c-0.042,0.039-0.054,0.092-0.063,0.151c-0.136,0.078-0.283,0.15-0.438,0.214c-0.229,0.059-0.521,0.155-0.766,0.256
			c-0.268,0.048-0.562,0.085-0.859,0.075c-0.185-0.039-0.399-0.063-0.623-0.078c-0.384-0.092-0.778-0.253-1.185-0.519
			c0,0-0.508-0.547-0.756-1.189c0.004-0.058-0.024-0.124-0.078-0.194c-0.131-0.501-0.112-1.015,0.387-1.387
			c0,0,0.416-0.856,1.861-0.379c0,0,1.577-0.944-0.282-1.713c0,0-3.596-1.883-3.679,3.315c0,0,0.282,2.095,1.611,3.028l-0.054,0.078
			c0,0,1.577,1.033,3.528,0.881l-0.008,0.02c0.1-0.01,0.183-0.034,0.275-0.059c0.053,0.005,0.097-0.007,0.146-0.015
			c6.155-0.868,6.797-7.405,6.855-9.371l0.005-0.015c-0.005-0.023-0.01-0.056,0-0.082c0-0.297-0.01-0.477-0.01-0.477
			c0.005,0.062-0.009,0.136-0.019,0.198c-0.024-0.311-0.054-0.632-0.092-0.96c-0.098-1.555-0.988-6.817-7.96-8.513
			c-0.107-0.054-0.209-0.079-0.317-0.1c-0.005,0.015-0.007,0.021,0,0.032c-0.107-0.032-0.223-0.055-0.325-0.063
			c-0.03-0.024-0.049-0.059-0.079-0.144c-0.189,0.026-0.092,0.073-0.058,0.106c-0.046-0.005-0.09-0.02-0.136-0.026
			c-0.03-0.063-0.049-0.137-0.105-0.146c-0.876,0.127-1.414-0.477-2.129-0.17c-0.166-0.241-0.924-0.151-1.221,0.005
			c-1.815,0.059-5.211,0.545-8.099,3.09c-0.036-0.006-0.065-0.006-0.099-0.029c-0.044,0.09-0.095,0.16-0.136,0.253
			c-1.688,1.574-3.187,3.89-4.039,7.279c0,0-0.978,2.508-0.891,5.838l-0.014,0.005c0,0,0.122,10.563,8.777,13.88
			c0.009,0.012,0.014,0.016,0.019,0.031c0.005-0.006,0.015-0.01,0.025-0.016c0.37,0.144,0.759,0.28,1.158,0.39
			c0,0,0.706,0.375,1.937,0.767c0,0.01,0.005,0.017,0,0.026c0.015-0.004,0.024-0.004,0.029-0.017c1.411,0.459,3.5,0.929,6.067,0.941
			c5.812,0.27,10.903-2.187,14.828-5.1c0.01-0.004,0.021-0.01,0.027-0.01c0,0,0.009,0,0-0.007c0.238-0.178,0.462-0.343,0.681-0.519
			c0.007,0,0.007,0,0.007,0s0,0-0.007-0.004c0.063-0.049,0.117-0.084,0.175-0.134v-0.006c0.326-0.25,0.627-0.498,0.926-0.751
			c0.01,0,0.02-0.005,0.025,0.005c0-0.021,0-0.021,0.007-0.024c0.316-0.277,0.623-0.55,0.924-0.827
			c0.049-0.044,0.098-0.085,0.156-0.132c0-0.005,0.004,0.013,0.004,0.013c0.015-0.024,0.022-0.037,0.037-0.046
			c0.632-0.597,1.221-1.174,1.754-1.719c0.092-0.062,0.185-0.116,0.274-0.211c0.134-0.129,0.26-0.305,0.382-0.494
			c1.922-2.095,2.995-3.678,2.995-3.678s3.598-4.282,9.12-13.414c2.102-3.985,3.664-6.979,4.701-8.992
			c1.764-3.433,3.028-6.111,3.788-8.025c0.941-2.372,1.457-4.406,1.55-6.111C175.436,39.928,174.842,39.139,173.597,38.59z
			 M140.56,69.228c0.021-0.02,0.044-0.039,0.063-0.054c-0.014,0.068-0.034,0.127-0.048,0.194c-0.01,0.006-0.015,0-0.027-0.01
			C140.548,69.329,140.553,69.27,140.56,69.228z M188.242,42.89c0.458-0.243,1.01-0.34,1.664-0.294
			c1.09,0.08,2.331,0.538,3.727,1.38c0.258,0.155,0.545,0.242,0.837,0.265c0.793,0.059,1.601-0.226,2.428-0.854
			c0.827-0.622,1.265-1.318,1.319-2.077c0.024-0.331-0.049-0.635-0.224-0.919c-1.143-1.538-2.112-2.564-2.897-3.09
			c-1.252-0.827-3.029-1.323-5.315-1.489c-2.776-0.202-5.374,0.436-7.78,1.897c-2.667,1.647-4.094,3.805-4.291,6.472
			c-0.107,1.501,0.331,2.861,1.309,4.077c1.031,1.313,2.438,2.155,4.214,2.529c2.566,0.539,3.814,1.236,3.756,2.078
			c-0.01,0.137-0.049,0.299-0.115,0.482c-0.552,0.403-1.141,0.579-1.763,0.537c-0.657-0.051-1.638-0.465-2.954-1.241
			c-1.311-0.78-2.27-1.189-2.868-1.235c-1.36-0.1-2.313,0.571-2.858,2.012c-0.205,0.533-0.355,1.518-0.458,2.964
			c0.905,1.412,2.462,2.549,4.637,3.42c1.764,0.672,3.664,1.09,5.712,1.23c2.423,0.179,4.5,0.025,6.228-0.452
			c3.274-0.886,5.026-2.939,5.257-6.157c0.133-1.875-0.246-3.359-1.163-4.435c-0.776-0.938-2.119-1.718-4.017-2.346
			c-3.455-1.128-5.177-2.25-5.182-3.374C187.435,43.669,187.697,43.209,188.242,42.89z M178.319,31.96
			c0.024,0.061,0.032,0.119,0.032,0.178c0,0.165-0.122,0.521-0.36,1.074c-0.248,0.555-0.365,0.974-0.365,1.256
			c0,0.365,0.161,0.656,0.482,0.876c0.043,0.039,0.1,0.061,0.185,0.061c0.684,0,1.63-0.737,2.842-2.206
			c1.365-1.674,2.043-3.265,2.024-4.773c-0.02-0.971-0.372-1.78-1.061-2.433c-0.686-0.657-1.51-0.983-2.476-0.983
			c-1.372,0-2.345,0.521-2.934,1.572c-0.36,0.623-0.545,1.296-0.545,2.021C176.142,30.196,176.872,31.315,178.319,31.96z"/>
	</g>
	<path fill="#FFFFFF" d="M34.445,22.635c0.445-0.789,0.669-2.511,0.669-5.152c0-4.184-0.971-6.637-2.91-7.361
		c-1.177-0.278-2.257-0.416-3.236-0.416c-0.579,0-1.333,0.133-2.259,0.398c-0.928,0.266-1.499,0.399-1.713,0.399
		c-0.357,0-0.547-0.499-0.547-1.503c0-0.726,0.126-1.818,0.37-3.283c0.248-1.464,0.375-2.554,0.375-3.279
		c0-0.728-0.112-1.219-0.326-1.474c0-0.301-0.433-0.545-1.294-0.737C22.907,0.078,22.342,0,21.89,0
		c-1.465,0-2.278,0.473-2.433,1.414c-0.205,1.382-0.316,3.337-0.316,5.854c0,3.437,0.238,8.468,0.735,15.081
		c0.194,0.681,1.1,1.023,2.722,1.023c1.535,0,2.379-0.343,2.53-1.023c0.172-0.298,0.253-0.799,0.253-1.505
		c0-0.384-0.027-0.943-0.095-1.683c-0.063-0.732-0.092-1.297-0.092-1.679c0-1.026,0.219-1.591,0.671-1.695
		c0.895-0.362,1.616-0.548,2.175-0.548c1.107,0,1.664,0.793,1.664,2.369c0,0.348-0.024,0.857-0.078,1.553
		c-0.053,0.695-0.08,1.214-0.08,1.552c0,1.046,0.182,1.754,0.557,2.116c0.375,0.365,1.107,0.543,2.195,0.543
		C33.514,23.372,34.224,23.126,34.445,22.635z M40.5,23.896c0.192,0.102,1.207,0.501,3.036,1.182
		c1.372,0.324,2.418,0.478,3.14,0.478c0.986,0,1.942-0.188,2.883-0.577c1.392-0.571,2.316-1.15,2.783-1.743
		c0.474-0.584,0.759-1.499,0.866-2.735c0.068-0.637-0.097-1.18-0.477-1.62c-0.389-0.436-0.897-0.652-1.542-0.652
		c-0.379,0-0.764,0.08-1.148,0.253c-0.876,0.561-1.771,0.835-2.686,0.835c-0.37,0-1.379-0.227-3.041-0.675
		c-0.37-0.106-0.684-0.313-0.949-0.62c-0.263-0.309-0.404-0.648-0.404-1.009c0-0.409,0.185-0.719,0.545-0.929
		c0.068-0.039,0.175-0.063,0.326-0.063c0.401,0,1.048,0.091,1.932,0.27c0.885,0.18,1.554,0.274,2,0.274
		c2.518,0,4.024-1.452,4.518-4.354c0-4.247-1.793-6.374-5.384-6.374c-0.039,0-0.486,0.034-1.341,0.098
		c-0.768,0.024-1.758,0.095-2.97,0.229c-3.036,0.68-4.99,3.133-5.863,7.356c-0.199,0.925-0.292,1.699-0.292,2.341
		c0,2.622,0.655,4.694,1.951,6.209C39.14,22.922,39.838,23.53,40.5,23.896z M46.261,11.975c-0.238,0.102-0.477,0.17-0.734,0.17
		c-0.27,0-0.516-0.068-0.759-0.17H46.261z M1.065,10.32c0.17,0.068,0.346,0.097,0.541,0.097c0.258,0,0.645-0.067,1.167-0.209
		c0.521-0.138,0.915-0.204,1.168-0.204c0.398,0,0.793,0.105,1.182,0.316c0.168,0.088,0.25,0.403,0.25,0.961
		c0,0.786-0.1,1.966-0.302,3.545C4.87,16.402,4.77,17.585,4.77,18.373c0,1.299,0.168,2.265,0.511,2.909
		c0.893,1.679,2.406,2.521,4.537,2.521c1.725,0,3.372-0.426,4.953-1.277c1.45-0.79,2.17-1.844,2.17-3.164
		c0-1.297-0.564-2.183-1.688-2.65c-0.282-0.066-0.535-0.095-0.769-0.095c-0.47,0-0.963,0.17-1.489,0.525
		c-0.521,0.349-0.898,0.528-1.134,0.528c-0.17,0-0.37-0.042-0.606-0.129c-0.557-0.214-0.834-1.341-0.834-3.387
		c0-2.062,0.192-3.309,0.574-3.737c0.195-0.364,0.973-0.438,2.335-0.226c1.491,0.217,2.428,0.163,2.812-0.16
		c0.472-0.275,0.706-0.969,0.706-2.075c0-0.492-0.068-1.01-0.19-1.564c-0.151-0.767-0.379-1.21-0.679-1.341
		c-0.445-0.214-1.306-0.236-2.586-0.063c-1.316,0.176-2.005,0.02-2.126-0.429c0.029-0.131,0.066-0.397,0.117-0.836
		c0.107-0.946,0.148-1.594,0.122-1.934c-0.015-0.445-0.453-0.787-1.307-1.022C9.626,0.618,9.03,0.546,8.412,0.546
		c-1.769,0-2.686,0.362-2.749,1.087c-0.039,0.596,0.054,1.414,0.292,2.46c0,0.17-0.129,0.447-0.389,0.827
		c-0.148,0.131-0.394,0.192-0.73,0.192c-0.321,0-0.788-0.047-1.392-0.142C2.838,4.873,2.372,4.827,2.056,4.827
		c-0.404,0-0.738,0.063-0.991,0.189C0.277,5.229-0.117,6.126-0.117,7.7C-0.117,9.276,0.277,10.149,1.065,10.32z"/>
</g>
<rect x="405.228" y="2.764" fill="#FFFFFF" width="1.246" height="73.357"/>
</svg>
